HIERARCHY
ROOT joint_Root
{
	OFFSET 0.0 0.0 0.0
	CHANNELS 6 Xposition Yposition Zposition Zrotation Xrotation Yrotation 
	JOINT Hips
	{
		OFFSET -17.1583 93.1646 452.98
		CHANNELS 6 Xposition Yposition Zposition Zrotation Xrotation Yrotation 
		JOINT Spine
		{
			OFFSET 15.7357 0.0 0.0
			CHANNELS 6 Xposition Yposition Zposition Zrotation Xrotation Yrotation 
			JOINT Chest
			{
				OFFSET 8.98455 -0.406207 0.0
				CHANNELS 6 Xposition Yposition Zposition Zrotation Xrotation Yrotation 
				JOINT Neck
				{
					OFFSET 16.3773 0.0 0.0
					CHANNELS 6 Xposition Yposition Zposition Zrotation Xrotation Yrotation 
					JOINT Head
					{
						OFFSET 6.45672 0.0 0.0
						CHANNELS 6 Xposition Yposition Zposition Zrotation Xrotation Yrotation 
						End Site
						{
							OFFSET 0.0 0.0 0.0
						}
					}
				}
				JOINT Shoulder_L
				{
					OFFSET 12.9942 -0.242716 4.98039
					CHANNELS 6 Xposition Yposition Zposition Zrotation Xrotation Yrotation 
					JOINT UpperArm_L
					{
						OFFSET 5.34809 0.0 0.0
						CHANNELS 6 Xposition Yposition Zposition Zrotation Xrotation Yrotation 
						JOINT LowerArm_L
						{
							OFFSET 24.3286 1.87007e-05 0.0
							CHANNELS 6 Xposition Yposition Zposition Zrotation Xrotation Yrotation 
							JOINT Hand_L
							{
								OFFSET 22.2916 0.0 0.0
								CHANNELS 6 Xposition Yposition Zposition Zrotation Xrotation Yrotation 
								End Site
								{
									OFFSET 0.0 0.0 0.0
								}
							}
						}
					}
				}
				JOINT Shoulder_R
				{
					OFFSET 12.9945 -0.242716 -4.98039
					CHANNELS 6 Xposition Yposition Zposition Zrotation Xrotation Yrotation 
					JOINT UpperArm_R
					{
						OFFSET -5.34813 0.0 0.0
						CHANNELS 6 Xposition Yposition Zposition Zrotation Xrotation Yrotation 
						JOINT LowerArm_R
						{
							OFFSET -24.3289 0.000322201 0.0
							CHANNELS 6 Xposition Yposition Zposition Zrotation Xrotation Yrotation 
							JOINT Hand_R
							{
								OFFSET -22.2915 -0.000108084 0.0
								CHANNELS 6 Xposition Yposition Zposition Zrotation Xrotation Yrotation 
								End Site
								{
									OFFSET 0.0 0.0 0.0
								}
							}
						}
					}
				}
			}
		}
		JOINT UpperLeg_L
		{
			OFFSET -2.19248 -6.46944 0.0
			CHANNELS 6 Xposition Yposition Zposition Zrotation Xrotation Yrotation 
			JOINT LowerLeg_L
			{
				OFFSET 39.0811 0.0 -1.23785e-05
				CHANNELS 6 Xposition Yposition Zposition Zrotation Xrotation Yrotation 
				JOINT Foot_L
				{
					OFFSET 40.9854 0.0 -1.26872e-05
					CHANNELS 6 Xposition Yposition Zposition Zrotation Xrotation Yrotation 
					JOINT Toes_L
					{
						OFFSET 11.7543 0.0 0.0
						CHANNELS 6 Xposition Yposition Zposition Zrotation Xrotation Yrotation 
						End Site
						{
							OFFSET 0.0 0.0 0.0
						}
					}
				}
			}
		}
		JOINT UpperLeg_R
		{
			OFFSET -2.19251 6.46944 0.0
			CHANNELS 6 Xposition Yposition Zposition Zrotation Xrotation Yrotation 
			JOINT LowerLeg_R
			{
				OFFSET -39.0811 -0.00228153 -0.0401928
				CHANNELS 6 Xposition Yposition Zposition Zrotation Xrotation Yrotation 
				JOINT Foot_R
				{
					OFFSET -40.9854 0.0 0.0
					CHANNELS 6 Xposition Yposition Zposition Zrotation Xrotation Yrotation 
					JOINT Toes_R
					{
						OFFSET -11.7543 0.0 0.0
						CHANNELS 6 Xposition Yposition Zposition Zrotation Xrotation Yrotation 
						End Site
						{
							OFFSET 0.0 0.0 0.0
						}
					}
				}
			}
		}
	}
}
MOTION
Frames:	5
Frame Time:	0.0333333
0.000000 0.000000 0.000000 0.000000 0.000000 -0.000000 0.473572 93.430100 0.193966 88.287200 1.076310 -1.868700 15.735700 0.000005 -0.000001 115.256000 87.072900 -115.418000 8.984550 -0.406207 -0.000000 -2.468750 2.511490 -0.270210 16.377300 -0.000001 -0.000001 0.057084 0.125358 0.038136 6.456720 -0.000001 -0.000000 1.874810 -1.716240 8.747510 12.994200 -0.242716 4.980390 -92.005500 6.132240 -71.850700 5.348090 -0.000007 -0.000001 -72.123300 1.175780 -9.494230 24.328600 0.000019 0.000005 1.474940 13.280100 -6.395900 22.291600 -0.000001 0.000005 -5.746010 4.989000 7.546440 12.994500 -0.242716 -4.980390 88.646700 5.055110 -74.991500 -5.348130 -0.000001 -0.000004 -72.191600 27.422200 -4.216470 -24.328900 0.000322 -0.000009 -0.107113 -0.382872 -15.488800 -22.291500 -0.000108 -0.000004 3.662980 5.275250 0.755852 -2.192480 -6.469440 -0.000000 -174.561000 -3.830800 -1.967840 39.081100 -0.000007 -0.000012 0.020436 -0.095122 12.125500 40.985400 -0.000006 -0.000013 -0.755391 11.745800 -68.071300 11.754300 -0.000000 0.000003 -0.000344 0.173233 -9.550240 -2.192510 6.469440 -0.000001 176.494000 7.439120 -178.611000 -39.081100 -0.002282 -0.040193 0.005644 -0.021680 6.051670 -40.985400 0.000008 0.000006 -10.450300 5.938000 -63.462700 -11.754300 -0.000006 -0.000006 -0.010758 0.276887 -5.322620
0.000000 0.000000 0.000000 0.000000 0.000000 -0.000000 0.460473 93.447500 0.140550 88.384000 1.365940 -2.097430 15.735700 0.000005 -0.000001 113.202000 87.215100 -113.169000 8.984550 -0.406207 -0.000000 -2.648190 2.190540 0.116933 16.377300 -0.000001 -0.000001 -0.395657 -0.090747 0.478565 6.456720 -0.000001 -0.000000 1.797950 -1.626250 9.344140 12.994200 -0.242716 4.980390 -91.928100 5.965810 -72.052700 5.348090 -0.000007 -0.000001 -70.421200 -0.232400 -9.805200 24.328600 0.000019 0.000005 1.553460 14.947800 -6.001340 22.291600 -0.000001 0.000005 -5.528180 4.934260 8.687740 12.994500 -0.242716 -4.980390 88.688100 4.909910 -75.020200 -5.348130 -0.000001 -0.000004 -71.805100 26.123700 -4.445460 -24.328900 0.000322 -0.000009 -0.115019 -0.436593 -14.634400 -22.291500 -0.000108 -0.000004 4.008860 5.278710 0.661556 -2.192480 -6.469440 -0.000000 -174.635000 -3.855330 -2.162550 39.081100 -0.000007 -0.000012 0.019188 -0.091202 11.881500 40.985400 -0.000006 -0.000013 -0.769004 12.055700 -67.927900 11.754300 -0.000000 0.000003 -0.000386 0.173887 -9.523690 -2.192510 6.469440 -0.000001 176.473000 7.378030 -178.798000 -39.081100 -0.002282 -0.040193 0.006172 -0.027050 5.964670 -40.985400 0.000008 0.000006 -10.419700 5.579570 -63.514000 -11.754300 -0.000006 -0.000006 -0.010852 0.277562 -5.294980
0.000000 0.000000 0.000000 0.000000 0.000000 -0.000000 0.453652 93.471800 0.108832 88.459000 1.543870 -2.332760 15.735700 0.000005 -0.000001 110.297000 87.344000 -109.975000 8.984550 -0.406207 -0.000000 -2.789480 1.812350 0.688542 16.377300 -0.000001 -0.000001 -0.964452 -0.181688 0.858399 6.456720 -0.000001 -0.000000 1.604340 -1.470470 9.900280 12.994200 -0.242716 4.980390 -91.918900 6.004740 -72.241300 5.348090 -0.000007 -0.000001 -67.673400 -0.519930 -9.363540 24.328600 0.000019 0.000005 1.880370 15.699000 -6.917660 22.291600 -0.000001 0.000005 -5.912270 4.937670 8.616320 12.994500 -0.242716 -4.980390 88.718600 4.767170 -74.935800 -5.348130 -0.000001 -0.000004 -71.245700 25.016500 -4.670160 -24.328900 0.000322 -0.000009 -0.150188 -0.592598 -14.126900 -22.291500 -0.000108 -0.000004 4.489190 5.282310 0.563018 -2.192480 -6.469440 -0.000000 -174.689000 -4.191460 -2.259800 39.081100 -0.000007 -0.000012 0.018311 -0.089731 11.534200 40.985400 -0.000006 -0.000013 -0.766192 12.542300 -67.830300 11.754300 -0.000000 0.000003 -0.000379 0.173783 -9.527930 -2.192510 6.469440 -0.000001 176.465000 7.198480 -179.007000 -39.081100 -0.002282 -0.040193 0.006739 -0.032854 5.896560 -40.985400 0.000008 0.000006 -10.445300 5.210680 -63.549600 -11.754300 -0.000006 -0.000006 -0.011073 0.279153 -5.229890
0.000000 0.000000 0.000000 0.000000 0.000000 -0.000000 0.461998 93.472000 0.128621 88.540800 1.640760 -2.449000 15.735700 0.000005 -0.000001 107.224000 87.411100 -106.580000 8.984550 -0.406207 -0.000000 -2.828770 1.473090 1.324270 16.377300 -0.000001 -0.000001 -1.564180 -0.357815 1.448070 6.456720 -0.000001 -0.000000 1.411500 -1.267340 10.373700 12.994200 -0.242716 4.980390 -91.931300 6.042540 -72.238400 5.348090 -0.000007 -0.000001 -64.760200 -3.205770 -9.381770 24.328600 0.000019 0.000005 1.821970 15.983800 -6.589350 22.291600 -0.000001 0.000005 -6.216600 4.962360 8.109810 12.994500 -0.242716 -4.980390 88.780300 4.508670 -74.845500 -5.348130 -0.000001 -0.000004 -70.835800 23.816100 -4.549530 -24.328900 0.000322 -0.000009 -0.104278 -0.408654 -14.174200 -22.291500 -0.000108 -0.000004 4.703420 5.284110 0.513491 -2.192480 -6.469440 -0.000000 -174.757000 -4.439490 -2.308820 39.081100 -0.000007 -0.000012 0.017695 -0.087787 11.396700 40.985400 -0.000006 -0.000013 -0.744121 12.882700 -67.762300 11.754300 -0.000000 0.000003 -0.000334 0.173072 -9.556820 -2.192510 6.469440 -0.000001 176.413000 7.133720 -179.074000 -39.081100 -0.002282 -0.040193 0.006928 -0.034936 5.855100 -40.985400 0.000008 0.000006 -10.385000 5.028870 -63.599900 -11.754300 -0.000006 -0.000006 -0.010862 0.277634 -5.292030
0.000000 0.000000 0.000000 0.000000 0.000000 -0.000000 0.435860 93.468500 0.169227 88.598900 1.604840 -2.472360 15.735700 0.000005 -0.000001 106.003000 87.475000 -105.044000 8.984550 -0.406207 -0.000000 -2.922260 1.302270 1.951510 16.377300 -0.000001 -0.000001 -2.011580 -0.543400 2.096640 6.456720 -0.000001 -0.000000 1.358410 -1.179800 11.325700 12.994200 -0.242716 4.980390 -91.872400 5.783890 -72.027000 5.348090 -0.000007 -0.000001 -61.694000 -7.381600 -9.944020 24.328600 0.000019 0.000005 1.546350 16.817500 -5.332110 22.291600 -0.000001 0.000005 -6.640860 4.928480 8.805720 12.994500 -0.242716 -4.980390 88.808300 4.363750 -74.709500 -5.348130 -0.000001 -0.000004 -70.527700 22.291200 -3.827510 -24.328900 0.000322 -0.000009 -0.107483 -0.408665 -14.597000 -22.291500 -0.000108 -0.000004 4.605040 5.285870 0.464894 -2.192480 -6.469440 -0.000000 -174.781000 -4.693610 -2.233640 39.081100 -0.000007 -0.000012 0.016540 -0.082988 11.272400 40.985400 -0.000006 -0.000013 -0.788975 13.104100 -67.695200 11.754300 -0.000000 0.000003 -0.000332 0.173042 -9.558020 -2.192510 6.469440 -0.000001 176.376000 6.985890 -179.048000 -39.081100 -0.002282 -0.040193 0.007012 -0.036028 5.810800 -40.985400 0.000008 0.000006 -10.424600 4.907370 -63.670900 -11.754300 -0.000006 -0.000006 -0.010937 0.278175 -5.269890
